<?xml version="1.0" encoding="UTF-8" standalone="no"?>
<!DOCTYPE svg PUBLIC "-//W3C//DTD SVG 1.1//EN"
 "http://www.w3.org/Graphics/SVG/1.1/DTD/svg11.dtd">
<!-- Generated by graphviz version 2.43.0 (0)
 -->
<!-- Title: collatz&#45;tree&#45;10 Pages: 1 -->
<svg width="108pt" height="1535pt"
 viewBox="0.00 0.00 107.75 1535.45" xmlns="http://www.w3.org/2000/svg" xmlns:xlink="http://www.w3.org/1999/xlink">
<g id="graph0" class="graph" transform="scale(1 1) rotate(0) translate(4 1531.45)">
<title>collatz&#45;tree&#45;10</title>
<defs>
<linearGradient id="l_0" gradientUnits="userSpaceOnUse" x1="49.87" y1="4" x2="49.87" y2="-1531.45" >
<stop offset="0" style="stop-color:#111111;stop-opacity:1.;"/>
<stop offset="1" style="stop-color:#222222;stop-opacity:1.;"/>
</linearGradient>
</defs>
<polygon fill="url(#l_0)" stroke="transparent" points="-4,4 -4,-1531.45 103.75,-1531.45 103.75,4 -4,4"/>
<!-- 1 -->
<g id="node1" class="node">
<title>1</title>
<ellipse fill="#eeeeee" stroke="black" cx="47" cy="-18" rx="18" ry="18"/>
<text text-anchor="middle" x="47" y="-14.3" font-family="Times,serif" font-size="14.00" fill="#111111">1</text>
</g>
<!-- 4 -->
<g id="node4" class="node">
<title>4</title>
<ellipse fill="#eeeeee" stroke="black" cx="47" cy="-162" rx="18" ry="18"/>
<text text-anchor="middle" x="47" y="-158.3" font-family="Times,serif" font-size="14.00" fill="#111111">4</text>
</g>
<!-- 1&#45;&gt;4 -->
<g id="edge2" class="edge">
<title>1&#45;&gt;4</title>
<path fill="none" stroke="#dd6644" d="M45.38,-36.17C44.48,-46.53 43.45,-60.01 43,-72 42.4,-87.99 42.4,-92.01 43,-108 43.31,-116.33 43.91,-125.39 44.54,-133.62"/>
<polygon fill="#dd6644" stroke="#dd6644" points="41.07,-134.15 45.38,-143.83 48.05,-133.58 41.07,-134.15"/>
</g>
<!-- 2 -->
<g id="node2" class="node">
<title>2</title>
<ellipse fill="#eeeeee" stroke="black" cx="70" cy="-90" rx="18" ry="18"/>
<text text-anchor="middle" x="70" y="-86.3" font-family="Times,serif" font-size="14.00" fill="#111111">2</text>
</g>
<!-- 2&#45;&gt;1 -->
<g id="edge1" class="edge">
<title>2&#45;&gt;1</title>
<path fill="none" stroke="#dd6644" d="M64.67,-72.76C61.98,-64.58 58.65,-54.45 55.61,-45.2"/>
<polygon fill="#dd6644" stroke="#dd6644" points="58.91,-44.04 52.47,-35.63 52.26,-46.23 58.91,-44.04"/>
</g>
<!-- 3 -->
<g id="node3" class="node">
<title>3</title>
<ellipse fill="#eeeeee" stroke="black" cx="18" cy="-545.74" rx="18" ry="18"/>
<text text-anchor="middle" x="18" y="-542.04" font-family="Times,serif" font-size="14.00" fill="#111111">3</text>
</g>
<!-- 10 -->
<g id="node10" class="node">
<title>10</title>
<ellipse fill="#eeeeee" stroke="black" cx="47" cy="-464.24" rx="23" ry="23"/>
<text text-anchor="middle" x="47" y="-460.54" font-family="Times,serif" font-size="14.00" fill="#111111">10</text>
</g>
<!-- 3&#45;&gt;10 -->
<g id="edge4" class="edge">
<title>3&#45;&gt;10</title>
<path fill="none" stroke="#dd6644" d="M23.87,-528.65C27.35,-519.11 31.88,-506.7 36,-495.4"/>
<polygon fill="#dd6644" stroke="#dd6644" points="39.35,-496.44 39.48,-485.85 32.77,-494.04 39.35,-496.44"/>
</g>
<!-- 4&#45;&gt;2 -->
<g id="edge3" class="edge">
<title>4&#45;&gt;2</title>
<path fill="none" stroke="#dd6644" d="M52.33,-144.76C55.02,-136.58 58.35,-126.45 61.39,-117.2"/>
<polygon fill="#dd6644" stroke="#dd6644" points="64.74,-118.23 64.53,-107.63 58.09,-116.04 64.74,-118.23"/>
</g>
<!-- 5 -->
<g id="node5" class="node">
<title>5</title>
<ellipse fill="#eeeeee" stroke="black" cx="47" cy="-387.5" rx="18" ry="18"/>
<text text-anchor="middle" x="47" y="-383.8" font-family="Times,serif" font-size="14.00" fill="#111111">5</text>
</g>
<!-- 16 -->
<g id="node11" class="node">
<title>16</title>
<ellipse fill="#eeeeee" stroke="black" cx="47" cy="-310.75" rx="23" ry="23"/>
<text text-anchor="middle" x="47" y="-307.05" font-family="Times,serif" font-size="14.00" fill="#111111">16</text>
</g>
<!-- 5&#45;&gt;16 -->
<g id="edge6" class="edge">
<title>5&#45;&gt;16</title>
<path fill="none" stroke="#dd6644" d="M47,-369.16C47,-361.62 47,-352.53 47,-343.83"/>
<polygon fill="#dd6644" stroke="#dd6644" points="50.5,-343.54 47,-333.54 43.5,-343.54 50.5,-343.54"/>
</g>
<!-- 6 -->
<g id="node6" class="node">
<title>6</title>
<ellipse fill="#eeeeee" stroke="black" cx="18" cy="-627.24" rx="18" ry="18"/>
<text text-anchor="middle" x="18" y="-623.54" font-family="Times,serif" font-size="14.00" fill="#111111">6</text>
</g>
<!-- 6&#45;&gt;3 -->
<g id="edge9" class="edge">
<title>6&#45;&gt;3</title>
<path fill="none" stroke="#dd6644" d="M18,-608.99C18,-598.78 18,-585.62 18,-574.03"/>
<polygon fill="#dd6644" stroke="#dd6644" points="21.5,-573.96 18,-563.96 14.5,-573.96 21.5,-573.96"/>
</g>
<!-- 7 -->
<g id="node7" class="node">
<title>7</title>
<ellipse fill="#eeeeee" stroke="black" cx="77" cy="-1274.46" rx="18" ry="18"/>
<text text-anchor="middle" x="77" y="-1270.76" font-family="Times,serif" font-size="14.00" fill="#111111">7</text>
</g>
<!-- 22 -->
<g id="node12" class="node">
<title>22</title>
<ellipse fill="#eeeeee" stroke="black" cx="77" cy="-1197.71" rx="23" ry="23"/>
<text text-anchor="middle" x="77" y="-1194.01" font-family="Times,serif" font-size="14.00" fill="#111111">22</text>
</g>
<!-- 7&#45;&gt;22 -->
<g id="edge10" class="edge">
<title>7&#45;&gt;22</title>
<path fill="none" stroke="#dd6644" d="M77,-1256.12C77,-1248.58 77,-1239.49 77,-1230.79"/>
<polygon fill="#dd6644" stroke="#dd6644" points="80.5,-1230.5 77,-1220.5 73.5,-1230.5 80.5,-1230.5"/>
</g>
<!-- 8 -->
<g id="node8" class="node">
<title>8</title>
<ellipse fill="#eeeeee" stroke="black" cx="47" cy="-234" rx="18" ry="18"/>
<text text-anchor="middle" x="47" y="-230.3" font-family="Times,serif" font-size="14.00" fill="#111111">8</text>
</g>
<!-- 8&#45;&gt;4 -->
<g id="edge8" class="edge">
<title>8&#45;&gt;4</title>
<path fill="none" stroke="#dd6644" d="M47,-215.7C47,-207.98 47,-198.71 47,-190.11"/>
<polygon fill="#dd6644" stroke="#dd6644" points="50.5,-190.1 47,-180.1 43.5,-190.1 50.5,-190.1"/>
</g>
<!-- 9 -->
<g id="node9" class="node">
<title>9</title>
<ellipse fill="#eeeeee" stroke="black" cx="77" cy="-1509.45" rx="18" ry="18"/>
<text text-anchor="middle" x="77" y="-1505.75" font-family="Times,serif" font-size="14.00" fill="#111111">9</text>
</g>
<!-- 28 -->
<g id="node21" class="node">
<title>28</title>
<ellipse fill="#eeeeee" stroke="black" cx="77" cy="-1432.7" rx="23" ry="23"/>
<text text-anchor="middle" x="77" y="-1429" font-family="Times,serif" font-size="14.00" fill="#111111">28</text>
</g>
<!-- 9&#45;&gt;28 -->
<g id="edge20" class="edge">
<title>9&#45;&gt;28</title>
<path fill="none" stroke="#dd6644" d="M77,-1491.11C77,-1483.57 77,-1474.48 77,-1465.78"/>
<polygon fill="#dd6644" stroke="#dd6644" points="80.5,-1465.5 77,-1455.5 73.5,-1465.5 80.5,-1465.5"/>
</g>
<!-- 10&#45;&gt;5 -->
<g id="edge5" class="edge">
<title>10&#45;&gt;5</title>
<path fill="none" stroke="#dd6644" d="M47,-441.22C47,-433.23 47,-424.1 47,-415.71"/>
<polygon fill="#dd6644" stroke="#dd6644" points="50.5,-415.62 47,-405.62 43.5,-415.62 50.5,-415.62"/>
</g>
<!-- 16&#45;&gt;8 -->
<g id="edge7" class="edge">
<title>16&#45;&gt;8</title>
<path fill="none" stroke="#dd6644" d="M47,-287.73C47,-279.73 47,-270.6 47,-262.21"/>
<polygon fill="#dd6644" stroke="#dd6644" points="50.5,-262.13 47,-252.13 43.5,-262.13 50.5,-262.13"/>
</g>
<!-- 11 -->
<g id="node13" class="node">
<title>11</title>
<ellipse fill="#eeeeee" stroke="black" cx="77" cy="-1116.21" rx="23" ry="23"/>
<text text-anchor="middle" x="77" y="-1112.51" font-family="Times,serif" font-size="14.00" fill="#111111">11</text>
</g>
<!-- 22&#45;&gt;11 -->
<g id="edge11" class="edge">
<title>22&#45;&gt;11</title>
<path fill="none" stroke="#dd6644" d="M77,-1174.56C77,-1166.66 77,-1157.59 77,-1149.03"/>
<polygon fill="#dd6644" stroke="#dd6644" points="80.5,-1148.96 77,-1138.96 73.5,-1148.96 80.5,-1148.96"/>
</g>
<!-- 34 -->
<g id="node14" class="node">
<title>34</title>
<ellipse fill="#eeeeee" stroke="black" cx="77" cy="-1034.72" rx="23" ry="23"/>
<text text-anchor="middle" x="77" y="-1031.02" font-family="Times,serif" font-size="14.00" fill="#111111">34</text>
</g>
<!-- 11&#45;&gt;34 -->
<g id="edge12" class="edge">
<title>11&#45;&gt;34</title>
<path fill="none" stroke="#dd6644" d="M77,-1093.07C77,-1085.16 77,-1076.1 77,-1067.54"/>
<polygon fill="#dd6644" stroke="#dd6644" points="80.5,-1067.47 77,-1057.47 73.5,-1067.47 80.5,-1067.47"/>
</g>
<!-- 17 -->
<g id="node15" class="node">
<title>17</title>
<ellipse fill="#eeeeee" stroke="black" cx="77" cy="-953.22" rx="23" ry="23"/>
<text text-anchor="middle" x="77" y="-949.52" font-family="Times,serif" font-size="14.00" fill="#111111">17</text>
</g>
<!-- 34&#45;&gt;17 -->
<g id="edge13" class="edge">
<title>34&#45;&gt;17</title>
<path fill="none" stroke="#dd6644" d="M77,-1011.57C77,-1003.67 77,-994.6 77,-986.04"/>
<polygon fill="#dd6644" stroke="#dd6644" points="80.5,-985.97 77,-975.97 73.5,-985.97 80.5,-985.97"/>
</g>
<!-- 52 -->
<g id="node16" class="node">
<title>52</title>
<ellipse fill="#eeeeee" stroke="black" cx="77" cy="-871.72" rx="23" ry="23"/>
<text text-anchor="middle" x="77" y="-868.02" font-family="Times,serif" font-size="14.00" fill="#111111">52</text>
</g>
<!-- 17&#45;&gt;52 -->
<g id="edge14" class="edge">
<title>17&#45;&gt;52</title>
<path fill="none" stroke="#dd6644" d="M77,-930.08C77,-922.17 77,-913.1 77,-904.55"/>
<polygon fill="#dd6644" stroke="#dd6644" points="80.5,-904.47 77,-894.47 73.5,-904.47 80.5,-904.47"/>
</g>
<!-- 26 -->
<g id="node17" class="node">
<title>26</title>
<ellipse fill="#eeeeee" stroke="black" cx="77" cy="-790.23" rx="23" ry="23"/>
<text text-anchor="middle" x="77" y="-786.53" font-family="Times,serif" font-size="14.00" fill="#111111">26</text>
</g>
<!-- 52&#45;&gt;26 -->
<g id="edge15" class="edge">
<title>52&#45;&gt;26</title>
<path fill="none" stroke="#dd6644" d="M77,-848.58C77,-840.68 77,-831.61 77,-823.05"/>
<polygon fill="#dd6644" stroke="#dd6644" points="80.5,-822.98 77,-812.98 73.5,-822.98 80.5,-822.98"/>
</g>
<!-- 13 -->
<g id="node18" class="node">
<title>13</title>
<ellipse fill="#eeeeee" stroke="black" cx="77" cy="-708.73" rx="23" ry="23"/>
<text text-anchor="middle" x="77" y="-705.03" font-family="Times,serif" font-size="14.00" fill="#111111">13</text>
</g>
<!-- 26&#45;&gt;13 -->
<g id="edge16" class="edge">
<title>26&#45;&gt;13</title>
<path fill="none" stroke="#dd6644" d="M77,-767.08C77,-759.18 77,-750.11 77,-741.55"/>
<polygon fill="#dd6644" stroke="#dd6644" points="80.5,-741.48 77,-731.48 73.5,-741.48 80.5,-741.48"/>
</g>
<!-- 40 -->
<g id="node19" class="node">
<title>40</title>
<ellipse fill="#eeeeee" stroke="black" cx="77" cy="-627.24" rx="23" ry="23"/>
<text text-anchor="middle" x="77" y="-623.54" font-family="Times,serif" font-size="14.00" fill="#111111">40</text>
</g>
<!-- 13&#45;&gt;40 -->
<g id="edge17" class="edge">
<title>13&#45;&gt;40</title>
<path fill="none" stroke="#dd6644" d="M77,-685.59C77,-677.68 77,-668.62 77,-660.06"/>
<polygon fill="#dd6644" stroke="#dd6644" points="80.5,-659.99 77,-649.99 73.5,-659.99 80.5,-659.99"/>
</g>
<!-- 20 -->
<g id="node20" class="node">
<title>20</title>
<ellipse fill="#eeeeee" stroke="black" cx="77" cy="-545.74" rx="23" ry="23"/>
<text text-anchor="middle" x="77" y="-542.04" font-family="Times,serif" font-size="14.00" fill="#111111">20</text>
</g>
<!-- 40&#45;&gt;20 -->
<g id="edge18" class="edge">
<title>40&#45;&gt;20</title>
<path fill="none" stroke="#dd6644" d="M77,-604.09C77,-596.19 77,-587.12 77,-578.56"/>
<polygon fill="#dd6644" stroke="#dd6644" points="80.5,-578.49 77,-568.49 73.5,-578.49 80.5,-578.49"/>
</g>
<!-- 20&#45;&gt;10 -->
<g id="edge19" class="edge">
<title>20&#45;&gt;10</title>
<path fill="none" stroke="#dd6644" d="M69.27,-524.27C65.98,-515.53 62.06,-505.15 58.43,-495.54"/>
<polygon fill="#dd6644" stroke="#dd6644" points="61.61,-494.04 54.8,-485.92 55.06,-496.51 61.61,-494.04"/>
</g>
<!-- 14 -->
<g id="node22" class="node">
<title>14</title>
<ellipse fill="#eeeeee" stroke="black" cx="77" cy="-1351.2" rx="23" ry="23"/>
<text text-anchor="middle" x="77" y="-1347.5" font-family="Times,serif" font-size="14.00" fill="#111111">14</text>
</g>
<!-- 28&#45;&gt;14 -->
<g id="edge21" class="edge">
<title>28&#45;&gt;14</title>
<path fill="none" stroke="#dd6644" d="M77,-1409.56C77,-1401.65 77,-1392.58 77,-1384.03"/>
<polygon fill="#dd6644" stroke="#dd6644" points="80.5,-1383.95 77,-1373.95 73.5,-1383.95 80.5,-1383.95"/>
</g>
<!-- 14&#45;&gt;7 -->
<g id="edge22" class="edge">
<title>14&#45;&gt;7</title>
<path fill="none" stroke="#dd6644" d="M77,-1328.18C77,-1320.19 77,-1311.06 77,-1302.67"/>
<polygon fill="#dd6644" stroke="#dd6644" points="80.5,-1302.58 77,-1292.58 73.5,-1302.58 80.5,-1302.58"/>
</g>
</g>
</svg>
